<?xml version="1.0" encoding="UTF-8" standalone="no"?>
<svg
   width="16"
   height="16"
   fill="currentColor"
   class="bi bi-person-arms-up"
   viewBox="0 0 16 16"
   version="1.1"
   id="svg2"
   sodipodi:docname="person-arms-up.svg"
   inkscape:version="1.4 (86a8ad7, 2024-10-11)"
   xmlns:inkscape="http://www.inkscape.org/namespaces/inkscape"
   xmlns:sodipodi="http://sodipodi.sourceforge.net/DTD/sodipodi-0.dtd"
   xmlns="http://www.w3.org/2000/svg"
   xmlns:svg="http://www.w3.org/2000/svg">
  <defs
     id="defs2" />
  <sodipodi:namedview
     id="namedview2"
     pagecolor="#ffffff"
     bordercolor="#000000"
     borderopacity="0.25"
     inkscape:showpageshadow="2"
     inkscape:pageopacity="0.0"
     inkscape:pagecheckerboard="0"
     inkscape:deskcolor="#d1d1d1"
     inkscape:zoom="50.9375"
     inkscape:cx="8.009816"
     inkscape:cy="8"
     inkscape:window-width="1920"
     inkscape:window-height="1017"
     inkscape:window-x="-8"
     inkscape:window-y="-8"
     inkscape:window-maximized="1"
     inkscape:current-layer="svg2" />
  <path
     d="M8 3a1.5 1.5 0 1 0 0-3 1.5 1.5 0 0 0 0 3"
     id="path1"
     style="fill:#ffffff" />
  <path
     d="m5.93 6.704-.846 8.451a.768.768 0 0 0 1.523.203l.81-4.865a.59.59 0 0 1 1.165 0l.81 4.865a.768.768 0 0 0 1.523-.203l-.845-8.451A1.5 1.5 0 0 1 10.5 5.5L13 2.284a.796.796 0 0 0-1.239-.998L9.634 3.84a.7.7 0 0 1-.33.235c-.23.074-.665.176-1.304.176-.64 0-1.074-.102-1.305-.176a.7.7 0 0 1-.329-.235L4.239 1.286a.796.796 0 0 0-1.24.998l2.5 3.216c.317.316.475.758.43 1.204Z"
     id="path2"
     style="fill:#ffffff" />
</svg>
